<?xml version="1.0" encoding="utf-8"?>
<svg version="1.1" viewBox="0 0 51 40" xmlns="http://www.w3.org/2000/svg">
  <defs>
    <linearGradient gradientUnits="userSpaceOnUse" x1="25.5" y1="0" x2="25.5" y2="40" id="gradient-0">
      <stop offset="0" style="stop-color: rgb(52, 196, 252);"/>
      <stop offset="1" style="stop-color: rgb(4, 10, 252);"/>
    </linearGradient>
  </defs>
  <rect width="51" height="40" style="fill: url(#gradient-0);" rx="4.536" ry="4.536"/>
  <path style="fill: rgb(252, 213, 119); stroke: rgb(234, 195, 110);" d="M 25.505 -0.765 C 21.784 -0.765 18.765 2.252 18.765 5.974 C 18.765 8.593 20.259 10.864 22.44 11.98 L 22.439 23.026 L 24.343 24.235 L 26.066 24.235 L 26.066 24.235 L 28.567 21.735 L 27.616 20.173 L 28.567 18.61 L 27.069 16.499 C 27.069 16.499 28.568 14.388 28.568 14.388 L 28.568 11.981 C 30.751 10.865 32.246 8.596 32.246 5.975 C 32.246 2.253 29.229 -0.765 25.505 -0.765 Z M 25.505 5.701 C 24.516 5.701 23.712 4.9 23.712 3.91 C 23.714 2.921 24.516 2.117 25.505 2.117 C 26.495 2.117 27.297 2.921 27.297 3.91 C 27.297 4.9 26.495 5.703 25.505 5.701 Z" transform="matrix(0, 1, -1, 0, 37.235847, -13.765147)"/>
  <g transform="matrix(0, 0.048828, -0.048828, 0, 37.999683, -0.760613)">
    <path style="fill:#EAC36E;" d="M255.983,138.338c-23.485,0-42.592-19.107-42.592-42.592s19.107-42.592,42.592-42.592 s42.592,19.107,42.592,42.592S279.467,138.338,255.983,138.338z M255.983,64.93c-16.992,0-30.816,13.824-30.816,30.816 s13.824,30.816,30.816,30.816s30.816-13.824,30.816-30.816S272.975,64.93,255.983,64.93z"/>
    <rect x="232.222" y="266.916" style="fill:#EAC36E;" width="15.526" height="245.083"/>
  </g>
</svg>
