<?xml version="1.0" encoding="utf-8"?>
<svg version="1.1" viewBox="0 0 100 40" xmlns="http://www.w3.org/2000/svg">
  <path style="fill: rgb(252, 213, 119); stroke: rgb(234, 195, 110);" d="M 50.001 -5 C 42.558 -5 36.521 1.033 36.52 8.479 C 36.519 13.717 39.507 18.258 43.871 20.489 L 43.868 42.581 L 47.677 44.999 L 51.122 45 L 51.122 45 L 56.123 39.999 L 54.224 36.875 L 56.124 33.75 L 53.128 29.527 C 53.128 29.527 56.126 25.305 56.126 25.306 L 56.126 20.491 C 60.492 18.261 63.48 13.721 63.481 8.482 C 63.482 1.038 57.447 -4.999 50.001 -5 Z M 50.001 7.934 C 48.021 7.934 46.416 6.329 46.416 4.35 C 46.417 2.371 48.022 0.766 50.001 0.766 C 51.98 0.766 53.585 2.371 53.585 4.351 C 53.584 6.33 51.98 7.935 50.001 7.934 Z" transform="matrix(0, 1, -1, 0, 70.0005, -30.0005)"/>
  <g transform="matrix(0, 0.097654, -0.097654, 0, 74.999344, -5.000708)">
    <path style="fill:#EAC36E;" d="M255.983,138.338c-23.485,0-42.592-19.107-42.592-42.592s19.107-42.592,42.592-42.592 s42.592,19.107,42.592,42.592S279.467,138.338,255.983,138.338z M255.983,64.93c-16.992,0-30.816,13.824-30.816,30.816 s13.824,30.816,30.816,30.816s30.816-13.824,30.816-30.816S272.975,64.93,255.983,64.93z"/>
    <rect x="232.222" y="266.916" style="fill:#EAC36E;" width="15.526" height="245.083"/>
  </g>
</svg>
